<svg xmlns="http://www.w3.org/2000/svg" viewBox="0 0 64 64" role="img" aria-label="Ocean mark">
  <defs>
    <linearGradient id="bg" x1="0%" y1="0%" x2="100%" y2="100%">
      <stop offset="0%" stop-color="#03203b"/>
      <stop offset="100%" stop-color="#0b4f6c"/>
    </linearGradient>
    <linearGradient id="wave" x1="0%" y1="0%" x2="100%" y2="0%">
      <stop offset="0%" stop-color="#4de1ff"/>
      <stop offset="60%" stop-color="#35c2f5"/>
      <stop offset="100%" stop-color="#7ad3ff"/>
    </linearGradient>
  </defs>

  <rect width="64" height="64" rx="14" fill="url(#bg)"/>

  <!-- stylized wave crest -->
  <path
    d="M10 38c6-6 14-10 22-10 6 0 11 2 16 6 3 2 6 3 9 3v8c-4 0-8-1-12-3-6-3-10-4-16-4-7 0-13 2-19 6z"
    fill="url(#wave)"
    opacity="0.9"
  />
  <path
    d="M12 46c5-3 11-5 18-5 6 0 12 2 17 5l5 3H12z"
    fill="#b9ecff"
    opacity="0.55"
  />
  <path
    d="M10 30c4-5 10-8 17-8 5 0 9 1.5 13 4.5l4 3.5c1 1 2.5 1.5 4 1.5h6v4c-4 0-7.5-1-10.5-3-6.5-4.5-11-6-16.5-6-6 0-12 2-17 5z"
    fill="#0ea5e9"
    opacity="0.65"
  />
</svg>
