<svg xmlns="http://www.w3.org/2000/svg" viewBox="0 0 64 64" role="img" aria-label="Neon question mark">
  <defs>
    <linearGradient id="bg" x1="0%" y1="0%" x2="100%" y2="100%">
      <stop offset="0%" stop-color="#05060a"/>
      <stop offset="100%" stop-color="#0b1224"/>
    </linearGradient>
    <linearGradient id="glow" x1="0%" y1="0%" x2="100%" y2="100%">
      <stop offset="0%" stop-color="#22d3ee"/>
      <stop offset="50%" stop-color="#60a5fa"/>
      <stop offset="100%" stop-color="#a855f7"/>
    </linearGradient>
    <filter id="outer-glow" x="-40%" y="-40%" width="180%" height="180%">
      <feDropShadow dx="0" dy="0" stdDeviation="2.5" flood-color="#60a5fa" flood-opacity="0.75"/>
    </filter>
  </defs>

  <rect width="64" height="64" rx="14" fill="url(#bg)"/>

  <path
    d="M32 13c-6 0-10 3-10 8h6c0-2 2-4 4-4 2.5 0 4.5 1.5 4.5 4 0 1.8-0.9 3.1-2.4 4.5l-2.7 2.4c-2 1.8-3.4 3.8-3.4 7.1v1h5v-1c0-1.7 0.6-2.8 2.1-4.1l2.6-2.2c2.6-2.3 4.3-4.9 4.3-8.5C41 17 37 13 32 13z"
    fill="url(#glow)"
    stroke="#e2e8f0"
    stroke-width="1.4"
    stroke-linejoin="round"
    filter="url(#outer-glow)"
  />

  <circle cx="32" cy="48.5" r="3" fill="url(#glow)" stroke="#e2e8f0" stroke-width="1.2" filter="url(#outer-glow)"/>
</svg>
